<svg width="278" height="119" xmlns="http://www.w3.org/2000/svg" viewBox="0 0 297.64 127.56"><title>logo</title><path d="M80,55.17,130.73,39.6l-30-8.6-3.83-1.12L72,36.05l7.8,19.18ZM204.46,17l-81-17L139,37Zm-84.57-15-17.95,25.2,32.41,9.28ZM76.59,119.5c-5.34,0-9.39-4.25-9.39-9.83a9.38,9.38,0,0,1,9.39-9.74,11.79,11.79,0,0,1,8.6,4.55l5.24-6.28a19.88,19.88,0,0,0-14-5.93c-10.57,0-18.53,7.51-18.53,17.49,0,10.18,7.76,17.79,18.19,17.79a20.7,20.7,0,0,0,14.38-6.42l-5.29-5.68A12.85,12.85,0,0,1,76.59,119.5Zm-60.54-27L1.18,127.16h9.29L12.89,121h15l2.37,6.13h9.64L25.35,92.52Zm-.44,21.6,4.84-12.36,4.74,12.36Zm265-12.26c0-1.58,1.44-2.37,3.61-2.37,2.87,0,7.51,1.63,11.17,3.71L298.77,96a26.58,26.58,0,0,0-13.84-3.9c-8.35,0-13.84,4.1-13.84,10.58,0,12.26,18.23,8.7,18.23,14.58,0,1.83-1.68,2.82-4.35,2.82-3.61,0-9-2.18-12.55-5.24l-3.51,7.07a26,26,0,0,0,16,5.54c7.71,0,13.94-3.61,13.94-10.68C298.82,104.33,280.58,107.59,280.58,101.86Zm-40.46,10.77c0,4.5-2.77,7.21-6.77,7.21s-7.07-2.77-7.07-7.21V92.52h-9v20.11c0,9.14,6.28,14.92,16.06,14.92s15.86-5.78,15.86-14.92V92.52h-9ZM164.68,100H175v27.18h9V100h10.38V92.52h-29.7ZM88.87,56.69l119.06-6,34.2-41.09Zm35.53,35.83-14.87,34.64h9.29l2.42-6.13h15l2.37,6.13h9.64L133.68,92.52Zm-.45,21.6,4.84-12.36,4.74,12.36Z" transform="translate(-1.18 0)" style="fill:#a97d28"/></svg>
