<svg width="1297" height="328" xmlns="http://www.w3.org/2000/svg">
 <!-- Generator: Sketch 49.3 (51167) - http://www.bohemiancoding.com/sketch -->
 <title>Artboard Copy 4</title>
 <desc>Created with Sketch.</desc>

 <g>
  <title>background</title>
  <rect fill="none" id="canvas_background" height="330" width="1299" y="-1" x="-1"/>
 </g>
 <g>
  <title>Layer 1</title>
  <g fill-rule="evenodd" fill="none" id="Artboard-Copy-4">
   <g id="Group">
    <g transform="translate(186.5,163.5) scale(-1,1) translate(-186.5,-163.5) translate(0,1) " id="Group-Copy-9">
     <polygon points="53.000030517578125,71 149.00003051757812,71 149.00003051757812,90 94.00003051757812,169 48.000030517578125,93 46.340057373046875,82.19999694824219 " fill="#D0D6DA" id="white-mask"/>
     <polygon points="210.05001831054688,284.7651672363281 303.08001708984375,284.84515380859375 256.6500244140625,203.78839111328125 163.52001953125,203.78839111328125 " transform="rotate(180 116.15002441406249,122.65838623046876) translate(-117.14999389648438,-121.65839385986328) " fill-rule="nonzero" fill="#D0D6DA" id="white-dark"/>
     <polygon points="210.09246826171875,41.69578552246094 163.52517700195312,122.85861206054688 256.587158203125,122.85861206054688 303.1181640625,41.780242919921875 " transform="rotate(180 116.16085052490234,41.63859558105469) translate(-117.16082000732422,-40.63859558105469) " fill-rule="nonzero" fill="#E6E7E8" id="white-light"/>
     <polygon points="91.00003051757812,163 187.00003051757812,163 147.00003051757812,246 46.200042724609375,244.20001220703125 " fill="#E1C92B" id="yellow-mask"/>
     <polygon points="163.3895721435547,447.0283203125 256.50555419921875,447.02154541015625 303.0365295410156,365.9432373046875 209.8795623779297,365.9161376953125 " transform="rotate(180 116.10653686523438,203.73611450195312) translate(-117.10650634765625,-202.73611450195312) " fill-rule="nonzero" fill="#E1C92B" id="yellow-dark"/>
     <polygon points="93.60672760009766,244.35610961914062 47.07574462890625,325.4615478515625 93.50975799560547,406.50836181640625 140.1106414794922,325.4344787597656 " transform="rotate(180 46.29660034179688,163.21612548828125) translate(-47.29657745361328,-162.2161102294922) " fill-rule="nonzero" fill="#FDD537" id="yellow-light"/>
     <polygon points="372.8200378417969,568.5138549804688 419.32373046875,487.38165283203125 372.846923828125,406.3846435546875 326.343017578125,487.40875244140625 " transform="rotate(180 185.91670227050778,244.224609375) translate(-186.9166717529297,-243.22462463378906) " fill-rule="nonzero" fill="#CF6256" id="red-dark"/>
     <polygon points="256.4859619140625,528.0767211914062 163.40000915527344,528.1301879882812 209.87368774414062,609.1279296875 303.0000305175781,609.1502075195312 " transform="rotate(180 116.10002136230469,284.8067321777344) translate(-117.09999084472656,-283.8067321777344) " fill-rule="nonzero" fill="#EC6B58" id="red-light"/>
     <polygon points="232.4000244140625,241 280.0000305175781,160 324.0000305175781,241 325.52001953125,244.29998779296875 323.0000305175781,247 232.4000244140625,246 " fill="#5E4A90" id="purple-mask"/>
     <polygon points="582.1735229492188,446.9876708984375 535.70654296875,365.902587890625 442.64453125,365.902587890625 489.0835266113281,446.9876708984375 " transform="rotate(180 255.70452880859375,203.72256469726565) translate(-256.7044982910156,-202.72256469726562) " fill-rule="nonzero" fill="#5E4A90" id="purple-dark"/>
     <polygon points="582.2770385742188,528.164306640625 489.1608581542969,528.0829467773438 442.6298828125,609.1613159179688 535.773193359375,609.1884155273438 " transform="rotate(180 255.72674560546872,284.8178405761719) translate(-256.7267150878906,-283.8178405761719) " fill-rule="nonzero" fill="#6E5AA1" id="purple-light"/>
     <polygon points="229.00003051757812,80 325.5000305175781,82.13999938964844 325.0000305175781,163 185.9000244140625,163 " fill="#27ADD7" id="blue-mask"/>
     <polygon points="582.2349243164062,203.79000854492188 489.12554931640625,203.79324340820312 442.6248474121094,284.8500061035156 535.6648559570312,284.8500061035156 " transform="rotate(180 255.7149658203125,122.66000366210938) translate(-256.7149353027344,-121.66000366210938) " fill-rule="nonzero" fill="#27ADD7" id="blue-dark"/>
     <polygon points="652.0328369140625,244.31546020507812 605.5289916992188,325.339599609375 652.0189819335938,406.3863525390625 698.5096435546875,325.339599609375 " transform="rotate(180 325.5096740722656,163.17547607421878) translate(-326.5096435546875,-162.1754608154297) " fill-rule="nonzero" fill="#40B6E3" id="blue-light"/>
     <polygon points="186.00003051757812,1.0500030517578125 241.00003051757812,2 241.00003051757812,82 186.00003051757812,82 " fill="#3BB98A" id="green-mask"/>
     <polygon points="326.3272399902344,163.247802734375 372.88433837890625,244.3135986328125 419.4616394042969,163.15078735351562 372.91143798828125,82.1807861328125 " transform="rotate(180 185.94723510742188,82.12359619140625) translate(-186.94720458984375,-81.12359619140625) " fill-rule="nonzero" fill="#3BB98A" id="green-dark"/>
     <polygon points="442.69097900390625,41.65354919433594 489.1816711425781,122.73190307617188 582.2437133789062,122.73190307617188 535.712646484375,41.65354919433594 " transform="rotate(180 255.73367309570312,41.59635925292969) translate(-256.733642578125,-40.59636306762695) " fill-rule="nonzero" fill="#41CB98" id="green-light"/>
    </g>
    <path fill="#101315" id="Global-App-Testing-Copy-3" d="m488.534459,106.33783c3.80385,0 7.17292,-0.33627 10.10731,-1.00882c2.9344,-0.67255 5.70573,-1.56927 8.31408,-2.69019l0,-18.57914l-11.73752,0c-1.7389,0 -3.0974,-0.47639 -4.07553,-1.42917c-0.97813,-0.95278 -1.46719,-2.15775 -1.46719,-3.61494l0,-15.63674l42.22247,0l0,51.70213c-3.04307,2.29788 -6.20837,4.27347 -9.49598,5.92682c-3.28761,1.65336 -6.79253,3.01245 -10.51486,4.07733c-3.72234,1.06487 -7.68914,1.8495 -11.90054,2.35391c-4.2114,0.50442 -8.7352,0.75662 -13.57151,0.75662c-8.69451,0 -16.7368,-1.58327 -24.12713,-4.74987c-7.39033,-3.1666 -13.78884,-7.53811 -19.19574,-13.11468c-5.40689,-5.57658 -9.6454,-12.1899 -12.71564,-19.84017c-3.07025,-7.65027 -4.60535,-15.95896 -4.60535,-24.92631c0,-9.13549 1.46718,-17.52825 4.40157,-25.17852c2.93439,-7.65027 7.13215,-14.24958 12.59338,-19.79813c5.46124,-5.54855 12.06353,-9.86402 19.80707,-12.94655c7.74354,-3.08253 16.39716,-4.62377 25.96111,-4.62377c4.945,0 9.59106,0.42034 13.93831,1.26103c4.34725,0.84069 8.35481,1.98962 12.02281,3.44681c3.66799,1.45719 7.02348,3.19459 10.06655,5.21225c3.04308,2.01765 5.76007,4.20341 8.15106,6.55734l-7.98804,12.52621c-0.76077,1.17696 -1.67096,2.10171 -2.7306,2.77426c-1.05964,0.67255 -2.21437,1.00882 -3.4642,1.00882c-1.63022,0 -3.31475,-0.56045 -5.05366,-1.68137c-2.17362,-1.3451 -4.22495,-2.50804 -6.15404,-3.48884c-1.9291,-0.98081 -3.89891,-1.77945 -5.90952,-2.39596c-2.0106,-0.6165 -4.12986,-1.06486 -6.35782,-1.34509c-2.22797,-0.28023 -4.7276,-0.42034 -7.49897,-0.42034c-5.16237,0 -9.80842,0.93875 -13.93831,2.81629c-4.12989,1.87754 -7.64839,4.52567 -10.55562,7.94447c-2.90722,3.41881 -5.14874,7.52411 -6.72462,12.31604c-1.57588,4.79193 -2.36381,10.13022 -2.36381,16.01505c0,6.50133 0.86944,12.27397 2.60834,17.31811c1.7389,5.04413 4.14344,9.30356 7.21369,12.77841c3.07024,3.47485 6.71101,6.12298 10.92241,7.94447c4.2114,1.8215 8.8167,2.73223 13.81604,2.73223zm86.23818,-105.33783l0,125.85054l-25.26828,0l0,-125.85054l25.26828,0zm58.03552,37.32641c6.41219,0 12.25373,1.03684 17.52477,3.11054c5.27104,2.0737 9.79483,5.04409 13.57151,8.91126c3.77667,3.86717 6.71102,8.56095 8.80314,14.08147c2.09211,5.52053 3.13816,11.72752 3.13816,18.62118c0,6.94969 -1.04605,13.21273 -3.13816,18.78931c-2.09212,5.57657 -5.02647,10.31238 -8.80314,14.20757c-3.77668,3.8952 -8.30047,6.89361 -13.57151,8.99533c-5.27104,2.10173 -11.11258,3.15257 -17.52477,3.15257c-6.46654,0 -12.34882,-1.05084 -17.64704,-3.15257c-5.29821,-2.10172 -9.86276,-5.10013 -13.69377,-8.99533c-3.83102,-3.89519 -6.79254,-8.631 -8.88465,-14.20757c-2.09212,-5.57658 -3.13816,-11.83962 -3.13816,-18.78931c0,-6.89366 1.04604,-13.10065 3.13816,-18.62118c2.09211,-5.52052 5.05363,-10.2143 8.88465,-14.08147c3.83101,-3.86717 8.39556,-6.83756 13.69377,-8.91126c5.29822,-2.0737 11.1805,-3.11054 17.64704,-3.11054zm0,70.53348c5.81445,0 10.09371,-2.11571 12.83791,-6.34718c2.74421,-4.23146 4.11628,-10.66264 4.11628,-19.29372c0,-8.63107 -1.37207,-15.04824 -4.11628,-19.25168c-2.7442,-4.20345 -7.02346,-6.30514 -12.83791,-6.30514c-5.97747,0 -10.35183,2.10169 -13.1232,6.30514c-2.77137,4.20344 -4.15704,10.62061 -4.15704,19.25168c0,8.63108 1.38567,15.06226 4.15704,19.29372c2.77137,4.23147 7.14573,6.34718 13.1232,6.34718zm56.89437,17.99065l0,-125.85054l25.26828,0l0,47.91905c3.15175,-3.19462 6.7246,-5.75869 10.71864,-7.69227c3.99403,-1.93359 8.68084,-2.90037 14.06057,-2.90037c4.40159,0 8.47708,0.98079 12.22658,2.9424c3.74951,1.96161 6.98273,4.83392 9.69976,8.61702c2.71703,3.7831 4.84987,8.42084 6.39858,13.91334c1.54871,5.4925 2.32305,11.74153 2.32305,18.74728c0,6.55737 -0.88302,12.61024 -2.6491,18.15879c-1.76607,5.54855 -4.23853,10.36843 -7.41746,14.45978c-3.17892,4.09136 -6.98271,7.28593 -11.41148,9.58381c-4.42876,2.29789 -9.33293,3.44681 -14.71265,3.44681c-2.49967,0 -4.74119,-0.2522 -6.72462,-0.75662c-1.98344,-0.50441 -3.80382,-1.21898 -5.46121,-2.14374c-1.65739,-0.92476 -3.17891,-2.03165 -4.56459,-3.32071c-1.38569,-1.28906 -2.7306,-2.69018 -4.03477,-4.20342l-0.89662,4.37156c-0.38039,1.79347 -1.07322,3.02646 -2.07852,3.69901c-1.0053,0.67255 -2.32304,1.00882 -3.95326,1.00882l-16.79118,0zm41.24435,-68.93617c-1.84759,0 -3.51854,0.18215 -5.0129,0.54645c-1.49437,0.3643 -2.88004,0.88272 -4.15704,1.55527c-1.27701,0.67255 -2.4589,1.52724 -3.54571,2.56409c-1.08681,1.03685 -2.17361,2.22781 -3.26042,3.57291l0,36.99014c1.90192,2.18579 3.96683,3.71302 6.1948,4.58173c2.22796,0.86871 4.56458,1.30306 7.00991,1.30306c2.33665,0 4.48307,-0.47638 6.43933,-1.42916c1.95627,-0.95278 3.65438,-2.48001 5.09441,-4.58174c1.44003,-2.10172 2.56758,-4.83392 3.38269,-8.19667c0.81511,-3.36276 1.22266,-7.45405 1.22266,-12.274c0,-4.59577 -0.32604,-8.46288 -0.97813,-11.60146c-0.65209,-3.13857 -1.56228,-5.67461 -2.7306,-7.6082c-1.16833,-1.93358 -2.56758,-3.3207 -4.1978,-4.16139c-1.63022,-0.84069 -3.4506,-1.26103 -5.4612,-1.26103zm111.66947,68.93617c-2.39099,0 -4.19779,-0.33627 -5.42046,-1.00882c-1.22266,-0.67255 -2.24153,-2.07368 -3.05664,-4.20342l-1.79323,-4.79191c-2.11929,1.84952 -4.15703,3.47483 -6.1133,4.87598c-1.95626,1.40114 -3.98042,2.5921 -6.07253,3.57291c-2.09212,0.9808 -4.32005,1.70939 -6.68387,2.18578c-2.36382,0.47639 -4.98571,0.71458 -7.86577,0.71458c-3.85819,0 -7.3631,-0.51842 -10.51486,-1.55527c-3.15176,-1.03685 -5.82799,-2.56408 -8.02879,-4.58173c-2.2008,-2.01765 -3.89892,-4.52567 -5.09441,-7.52413c-1.1955,-2.99846 -1.79323,-6.45924 -1.79323,-10.38246c0,-3.08253 0.76075,-6.24908 2.28229,-9.49974c1.52154,-3.25067 4.15702,-6.20704 7.90653,-8.86923c3.7495,-2.66218 8.8031,-4.88997 15.16096,-6.68344c6.35786,-1.79347 14.37298,-2.80229 24.04562,-3.02647l0,-3.69901c0,-5.10018 -1.01887,-8.78515 -3.05665,-11.05501c-2.03777,-2.26986 -4.93137,-3.40478 -8.68087,-3.40478c-2.98874,0 -5.43403,0.33628 -7.33595,1.00883c-1.90193,0.67255 -3.60005,1.42916 -5.09442,2.26985c-1.49436,0.84069 -2.94795,1.59729 -4.36081,2.26985c-1.41286,0.67255 -3.09739,1.00882 -5.05365,1.00882c-1.73891,0 -3.21967,-0.43435 -4.44233,-1.30306c-1.22266,-0.86872 -2.1872,-1.94758 -2.89363,-3.23664l-4.56459,-8.15465c5.10802,-4.65181 10.77295,-8.11259 16.99495,-10.38246c6.22201,-2.26986 12.89222,-3.40477 20.01085,-3.40477c5.10802,0 9.71332,0.85469 13.81604,2.56409c4.10272,1.7094 7.58047,4.09132 10.43335,7.14582c2.85289,3.05451 5.04006,6.68343 6.5616,10.88687c1.52154,4.20345 2.2823,8.79915 2.2823,13.78724l0,54.47638l-11.5745,0zm-29.01776,-15.88894c3.26044,0 6.11328,-0.58847 8.55861,-1.76544c2.44533,-1.17697 4.91779,-3.0825 7.41746,-5.71666l0,-12.10586c-5.05368,0.22418 -9.21068,0.67254 -12.47112,1.34509c-3.26044,0.67256 -5.84158,1.51323 -7.7435,2.52206c-1.90193,1.00883 -3.21967,2.15775 -3.95327,3.44681c-0.73359,1.28905 -1.10039,2.69018 -1.10039,4.20342c0,2.97044 0.78793,5.05812 2.36381,6.26311c1.57588,1.20498 3.88532,1.80747 6.9284,1.80747zm84.60796,-109.9616l0,125.85054l-25.26827,0l0,-125.85054l25.26827,0zm-355.06001,293.98755l-21.35577,0c-2.39099,0 -4.36081,-0.57447 -5.90951,-1.72341c-1.54871,-1.14894 -2.62192,-2.62012 -3.21967,-4.41359l-7.00991,-21.3534l-45.15685,0l-7.00991,21.3534c-0.54341,1.56928 -1.60303,2.98442 -3.17891,4.24545c-1.57588,1.26104 -3.50494,1.89155 -5.78725,1.89155l-21.51879,0l45.97196,-122.48781l28.20265,0l45.97196,122.48781zm-76.29389,-46.82616l32.44121,0l-10.92242,-33.54333c-0.70643,-2.12975 -1.53511,-4.63776 -2.48607,-7.52413c-0.95096,-2.88637 -1.88832,-6.01088 -2.81212,-9.37364c-0.86945,3.4188 -1.76605,6.58535 -2.68984,9.49974c-0.92379,2.91439 -1.79323,5.43642 -2.60834,7.56617l-10.92242,33.37519zm85.91214,74.48469l0,-114.83757l15.65002,0c1.57588,0 2.89362,0.36429 3.95327,1.09289c1.05964,0.7286 1.80681,1.82148 2.24154,3.27867l1.87474,6.38921c1.63022,-1.84952 3.38268,-3.53087 5.25743,-5.04411c1.87475,-1.51324 3.88533,-2.81629 6.03178,-3.90919c2.14646,-1.09289 4.4559,-1.94758 6.9284,-2.56409c2.4725,-0.6165 5.17591,-0.92475 8.1103,-0.92475c4.40159,0 8.47708,1.00881 12.22659,3.02647c3.7495,2.01765 6.98272,4.932 9.69975,8.74312c2.71704,3.81112 4.84987,8.47688 6.39858,13.99741c1.54871,5.52052 2.32305,11.78356 2.32305,18.78931c0,6.55737 -0.88302,12.61024 -2.64909,18.15879c-1.76607,5.54855 -4.23853,10.36843 -7.41746,14.45978c-3.17893,4.09136 -6.98272,7.28593 -11.41148,9.58381c-4.42876,2.29789 -9.33293,3.44681 -14.71266,3.44681c-4.40159,0 -8.0967,-0.64452 -11.08543,-1.93357c-2.98874,-1.28906 -5.70573,-3.02646 -8.15106,-5.21225l0,33.45926l-25.26827,0zm41.24434,-96.5947c-1.84758,0 -3.51853,0.18214 -5.0129,0.54644c-1.49437,0.3643 -2.88003,0.88272 -4.15704,1.55527c-1.277,0.67255 -2.45889,1.52724 -3.54571,2.56409c-1.08681,1.03685 -2.17361,2.22781 -3.26042,3.57291l0,36.99014c1.90192,2.18579 3.96684,3.71302 6.1948,4.58173c2.22797,0.86871 4.56458,1.30306 7.00991,1.30306c2.33665,0 4.48307,-0.47638 6.43934,-1.42916c1.95626,-0.95278 3.65438,-2.48001 5.09441,-4.58173c1.44002,-2.10173 2.56757,-4.83393 3.38268,-8.19668c0.81511,-3.36276 1.22266,-7.45405 1.22266,-12.274c0,-4.59577 -0.32604,-8.46288 -0.97812,-11.60146c-0.65209,-3.13857 -1.56228,-5.67461 -2.73061,-7.6082c-1.16832,-1.93358 -2.56757,-3.3207 -4.19779,-4.16139c-1.63022,-0.84069 -3.4506,-1.26102 -5.46121,-1.26102zm52.98187,96.5947l0,-114.83757l15.65002,0c1.57588,0 2.89362,0.36429 3.95327,1.09289c1.05964,0.7286 1.80681,1.82148 2.24154,3.27867l1.87474,6.38921c1.63022,-1.84952 3.38268,-3.53087 5.25743,-5.04411c1.87475,-1.51324 3.88533,-2.81629 6.03178,-3.90919c2.14646,-1.09289 4.4559,-1.94758 6.9284,-2.56409c2.4725,-0.6165 5.17591,-0.92475 8.1103,-0.92475c4.40159,0 8.47708,1.00881 12.22659,3.02647c3.7495,2.01765 6.98272,4.932 9.69975,8.74312c2.71704,3.81112 4.84987,8.47688 6.39858,13.99741c1.54871,5.52052 2.32305,11.78356 2.32305,18.78931c0,6.55737 -0.88302,12.61024 -2.64909,18.15879c-1.76607,5.54855 -4.23853,10.36843 -7.41746,14.45978c-3.17893,4.09136 -6.98272,7.28593 -11.41148,9.58381c-4.42876,2.29789 -9.33293,3.44681 -14.71266,3.44681c-4.40159,0 -8.0967,-0.64452 -11.08543,-1.93357c-2.98874,-1.28906 -5.70573,-3.02646 -8.15106,-5.21225l0,33.45926l-25.26827,0zm41.24434,-96.5947c-1.84758,0 -3.51853,0.18214 -5.0129,0.54644c-1.49437,0.3643 -2.88003,0.88272 -4.15704,1.55527c-1.277,0.67255 -2.45889,1.52724 -3.54571,2.56409c-1.08681,1.03685 -2.17361,2.22781 -3.26042,3.57291l0,36.99014c1.90192,2.18579 3.96684,3.71302 6.1948,4.58173c2.22797,0.86871 4.56458,1.30306 7.00991,1.30306c2.33665,0 4.48307,-0.47638 6.43934,-1.42916c1.95626,-0.95278 3.65438,-2.48001 5.09441,-4.58173c1.44002,-2.10173 2.56758,-4.83393 3.38269,-8.19668c0.81511,-3.36276 1.22265,-7.45405 1.22265,-12.274c0,-4.59577 -0.32604,-8.46288 -0.97812,-11.60146c-0.65209,-3.13857 -1.56228,-5.67461 -2.73061,-7.6082c-1.16832,-1.93358 -2.56757,-3.3207 -4.19779,-4.16139c-1.63022,-0.84069 -3.4506,-1.26102 -5.46121,-1.26102zm170.68312,-53.55164l0,22.53036l-33.41933,0l0,99.95745l-27.55057,0l0,-99.95745l-33.41933,0l0,-22.53036l94.38923,0zm31.30006,33.96367c5.59708,0 10.71861,0.89673 15.36474,2.6902c4.64612,1.79347 8.6401,4.39956 11.98205,7.81837c3.34195,3.4188 5.95026,7.60817 7.82501,12.56824c1.87476,4.96006 2.81212,10.57859 2.81212,16.85573c0,1.96161 -0.08151,3.5589 -0.24453,4.79191c-0.16303,1.23301 -0.4619,2.2138 -0.89662,2.94239c-0.43473,0.7286 -1.01888,1.23301 -1.75248,1.51324c-0.7336,0.28023 -1.67096,0.42034 -2.81211,0.42034l-48.74332,0c0.81511,7.28597 2.96153,12.56822 6.43934,15.84691c3.4778,3.27869 7.96083,4.91801 13.44924,4.91801c2.93439,0 5.4612,-0.36429 7.58048,-1.09289c2.11929,-0.7286 4.0076,-1.54125 5.66499,-2.43799c1.65739,-0.89673 3.1789,-1.70939 4.56459,-2.43798c1.38568,-0.7286 2.83927,-1.09289 4.36081,-1.09289c2.01061,0 3.53212,0.7566 4.56459,2.26985l7.33595,9.3316c-2.60835,3.08253 -5.42043,5.59054 -8.43634,7.52413c-3.0159,1.93358 -6.11328,3.4468 -9.2922,4.5397c-3.17893,1.09289 -6.35781,1.8495 -9.53674,2.26985c-3.17893,0.42034 -6.20837,0.63051 -9.08843,0.63051c-5.92313,0 -11.47938,-0.9948 -16.66891,-2.98443c-5.18953,-1.98963 -9.7269,-4.94601 -13.61226,-8.86923c-3.88536,-3.92321 -6.95556,-8.79914 -9.21069,-14.62792c-2.25514,-5.82877 -3.38269,-12.61023 -3.38269,-20.34457c0,-5.82878 0.96453,-11.34923 2.89362,-16.5615c1.9291,-5.21227 4.70043,-9.77995 8.31408,-13.70316c3.61365,-3.92322 7.98801,-7.03372 13.1232,-9.33161c5.13519,-2.29788 10.93597,-3.44681 17.40251,-3.44681zm0.48906,17.99066c-4.83632,0 -8.61294,1.41514 -11.32997,4.24546c-2.71703,2.83032 -4.51025,6.9076 -5.3797,12.23197l31.54459,0c0,-2.0737 -0.25811,-4.09132 -0.77435,-6.05293c-0.51624,-1.96161 -1.3585,-3.71302 -2.52683,-5.25428c-1.16832,-1.54127 -2.70342,-2.78827 -4.60534,-3.74105c-1.90193,-0.95278 -4.21137,-1.42917 -6.9284,-1.42917zm103.68144,2.43799c-0.65209,1.06487 -1.34493,1.82148 -2.07853,2.26985c-0.73359,0.44837 -1.67096,0.67255 -2.81211,0.67255c-1.19549,0 -2.39097,-0.26622 -3.58646,-0.79865c-1.1955,-0.53244 -2.48607,-1.1069 -3.87176,-1.72341c-1.38568,-0.6165 -2.94795,-1.19097 -4.68685,-1.7234c-1.7389,-0.53244 -3.72231,-0.79865 -5.95027,-0.79865c-3.2061,0 -5.66498,0.6305 -7.37671,1.89154c-1.71173,1.26103 -2.56758,3.01244 -2.56758,5.25428c0,1.62533 0.55698,2.97042 1.67096,4.03529c1.11399,1.06487 2.59475,2.00363 4.44233,2.81629c1.84758,0.81267 3.93967,1.58329 6.27631,2.31189c2.33665,0.72859 4.7276,1.54125 7.17293,2.43798c2.44533,0.89674 4.83628,1.94758 7.17293,3.15257c2.33665,1.20499 4.42873,2.69018 6.27631,4.45563c1.84759,1.76545 3.32835,3.90917 4.44233,6.43124c1.11398,2.52207 1.67097,5.54851 1.67097,9.0794c0,4.31554 -0.76076,8.29474 -2.2823,11.93773c-1.52154,3.64298 -3.79022,6.78151 -6.80613,9.41567c-3.01591,2.63416 -6.73818,4.67981 -11.16695,6.137c-4.42876,1.4572 -9.52312,2.18578 -15.28323,2.18578c-2.88005,0 -5.76006,-0.28022 -8.64012,-0.84068c-2.88005,-0.56046 -5.66497,-1.31707 -8.35483,-2.26985c-2.68986,-0.95278 -5.17591,-2.0877 -7.45822,-3.40478c-2.2823,-1.31708 -4.23854,-2.73222 -5.86876,-4.24546l5.86876,-9.58381c0.70643,-1.12092 1.5487,-2.00362 2.52683,-2.64815c0.97813,-0.64453 2.25512,-0.96679 3.831,-0.96679c1.4672,0 2.78494,0.33627 3.95326,1.00882c1.16832,0.67255 2.43172,1.40114 3.79024,2.18578c1.35852,0.78465 2.94796,1.51323 4.76837,2.18578c1.82041,0.67255 4.11627,1.00882 6.88764,1.00882c1.95626,0 3.61363,-0.21016 4.97214,-0.63051c1.35852,-0.42034 2.44532,-0.99481 3.26043,-1.7234c0.81511,-0.7286 1.41285,-1.54125 1.79323,-2.43799c0.38038,-0.89673 0.57057,-1.82148 0.57057,-2.77426c0,-1.73743 -0.57056,-3.16658 -1.71172,-4.28749c-1.14115,-1.12092 -2.6355,-2.0877 -4.48308,-2.90037c-1.84758,-0.81266 -3.95325,-1.56927 -6.31707,-2.26985c-2.36381,-0.70057 -4.76835,-1.49921 -7.21368,-2.39595c-2.44533,-0.89673 -4.84987,-1.9756 -7.21369,-3.23664c-2.36381,-1.26103 -4.46948,-2.85831 -6.31706,-4.7919c-1.84759,-1.93359 -3.34193,-4.30149 -4.48309,-7.10379c-1.14115,-2.8023 -1.71172,-6.19303 -1.71172,-10.17229c0,-3.69903 0.69283,-7.21586 2.07852,-10.55059c1.38569,-3.33474 3.46419,-6.26309 6.23556,-8.78516c2.77137,-2.52207 6.24912,-4.52568 10.43335,-6.0109c4.18423,-1.48522 9.07482,-2.22782 14.6719,-2.22782c3.04308,0 5.99102,0.28023 8.8439,0.84069c2.85288,0.56046 5.52912,1.34509 8.02879,2.35392c2.49967,1.00882 4.78194,2.19978 6.84689,3.57291c2.06494,1.37312 3.88533,2.87233 5.4612,4.49766l-5.70573,9.16347zm49.72144,69.44058c-4.02121,0 -7.56688,-0.60248 -10.63713,-1.80747c-3.07025,-1.20499 -5.65139,-2.91436 -7.7435,-5.12818c-2.09212,-2.21381 -3.68156,-4.88997 -4.76837,-8.02854c-1.08681,-3.13858 -1.63021,-6.64139 -1.63021,-10.50856l0,-45.06072l-7.17293,0c-1.30418,0 -2.41814,-0.43435 -3.34194,-1.30306c-0.92379,-0.86871 -1.38568,-2.14374 -1.38568,-3.82512l0,-10.17229l13.44925,-2.69019l4.97214,-21.26933c0.65209,-2.69021 2.49964,-4.03529 5.54272,-4.03529l13.20471,0l0,25.47276l20.54066,0l0,17.82252l-20.54066,0l0,43.29528c0,2.01765 0.47547,3.68499 1.42644,5.00207c0.95096,1.31708 2.32304,1.97561 4.11628,1.97561c0.92379,0 1.69813,-0.09808 2.32305,-0.29424c0.62492,-0.19616 1.16832,-0.42034 1.63021,-0.67255c0.4619,-0.2522 0.89662,-0.47638 1.30417,-0.67254c0.40756,-0.19616 0.88303,-0.29424 1.42644,-0.29424c0.76076,0 1.37209,0.18214 1.83398,0.54644c0.4619,0.3643 0.93737,0.93876 1.42644,1.72341l7.66199,12.35807c-3.26044,2.52206 -6.92838,4.41359 -11.00392,5.67462c-4.07555,1.26103 -8.28689,1.89154 -12.63414,1.89154zm61.62198,-88.52413l0,87.17904l-25.26827,0l0,-87.17904l25.26827,0zm2.93438,-23.87545c0,2.0737 -0.40755,4.02126 -1.22265,5.84276c-0.81511,1.82149 -1.92908,3.41878 -3.34194,4.7919c-1.41285,1.37313 -3.05663,2.46601 -4.93139,3.27867c-1.87475,0.81267 -3.87174,1.219 -5.99102,1.219c-2.06495,0 -3.99401,-0.40633 -5.78725,-1.219c-1.79324,-0.81266 -3.38268,-1.90554 -4.76837,-3.27867c-1.38569,-1.37312 -2.47248,-2.97041 -3.26042,-4.7919c-0.78794,-1.8215 -1.18191,-3.76906 -1.18191,-5.84276c0,-2.12975 0.39397,-4.11935 1.18191,-5.96887c0.78794,-1.84951 1.87473,-3.47482 3.26042,-4.87597c1.38569,-1.40115 2.97513,-2.49403 4.76837,-3.27867c1.79324,-0.78465 3.7223,-1.17696 5.78725,-1.17696c2.11928,0 4.11627,0.39231 5.99102,1.17696c1.87476,0.78464 3.51854,1.87752 4.93139,3.27867c1.41286,1.40115 2.52683,3.02646 3.34194,4.87597c0.8151,1.84952 1.22265,3.83912 1.22265,5.96887zm17.44326,111.05449l0,-87.17904l15.65003,0c1.57588,0 2.89362,0.36429 3.95326,1.09289c1.05965,0.7286 1.80682,1.82148 2.24154,3.27867l1.46719,5.04411c1.63022,-1.56928 3.31476,-3.02646 5.05366,-4.37156c1.7389,-1.3451 3.60004,-2.48002 5.58347,-3.40477c1.98344,-0.92476 4.12986,-1.65335 6.43934,-2.18578c2.30948,-0.53244 4.82269,-0.79866 7.53972,-0.79866c4.61896,0 8.70803,0.82667 12.26734,2.48002c3.55932,1.65336 6.56159,3.95121 9.00692,6.89362c2.44533,2.94241 4.29289,6.44523 5.54272,10.50857c1.24983,4.06333 1.87474,8.47688 1.87474,13.24078l0,55.40115l-25.26827,0l0,-55.40115c0,-4.25949 -0.95095,-7.58016 -2.85287,-9.96211c-1.90192,-2.38196 -4.70043,-3.57291 -8.39559,-3.57291c-2.77137,0 -5.37968,0.61649 -7.82501,1.8495c-2.44533,1.23301 -4.78194,2.88634 -7.00991,4.96004l0,62.12663l-25.26828,0zm124.38512,-88.69227c3.58649,0 6.96914,0.36429 10.14807,1.09289c3.17893,0.72859 6.12686,1.76543 8.84389,3.11053l25.51281,0l0,9.49974c0,1.4572 -0.39396,2.60612 -1.1819,3.44681c-0.78794,0.84069 -2.13285,1.48521 -4.03478,1.93358l-6.1948,1.42916c0.76077,2.52207 1.14115,5.12817 1.14115,7.81837c0,4.37159 -0.88302,8.29474 -2.64909,11.76959c-1.76608,3.47485 -4.1842,6.43123 -7.25444,8.86923c-3.07025,2.438 -6.69743,4.31551 -10.88166,5.63259c-4.18423,1.31708 -8.66727,1.97561 -13.44925,1.97561c-2.66269,0 -5.16232,-0.16814 -7.49897,-0.50441c-1.84758,1.12092 -2.77136,2.40995 -2.77136,3.86715c0,1.45719 0.74717,2.50804 2.24154,3.15257c1.49437,0.64452 3.46419,1.09289 5.90952,1.34509c2.44533,0.25221 5.24383,0.42035 8.39559,0.50441c3.15175,0.08407 6.3578,0.28023 9.61824,0.58848c3.26044,0.30826 6.46649,0.82667 9.61825,1.55527c3.15176,0.7286 5.95026,1.90555 8.39559,3.53088c2.44533,1.62533 4.41514,3.79708 5.90951,6.51531c1.49437,2.71823 2.24154,6.17901 2.24154,10.38246c0,3.92321 -0.92377,7.7623 -2.77136,11.51738c-1.84758,3.75508 -4.56457,7.08976 -8.15105,10.00415c-3.58648,2.91439 -7.98801,5.25427 -13.20471,7.01972c-5.21671,1.76545 -11.19409,2.64816 -17.93233,2.64816c-6.62956,0 -12.34882,-0.64452 -17.15797,-1.93358c-4.80915,-1.28905 -8.80313,-2.98442 -11.98205,-5.08614c-3.17893,-2.10172 -5.52913,-4.52567 -7.05067,-7.27193c-1.52154,-2.74625 -2.28229,-5.60455 -2.28229,-8.57498c0,-3.86717 1.14113,-7.1318 3.42344,-9.79398c2.28231,-2.66218 5.40685,-4.74987 9.37372,-6.26311c-1.90193,-1.28905 -3.42344,-2.94238 -4.5646,-4.96004c-1.14115,-2.01765 -1.71172,-4.5677 -1.71172,-7.65023c0,-1.28906 0.21736,-2.64815 0.65209,-4.07732c0.43472,-1.42917 1.11397,-2.81629 2.03776,-4.16139c0.92379,-1.34511 2.0921,-2.63414 3.50495,-3.86716c1.41286,-1.23301 3.0974,-2.32589 5.05366,-3.27867c-4.40159,-2.40997 -7.86576,-5.60454 -10.3926,-9.5838c-2.52684,-3.97927 -3.79024,-8.60299 -3.79024,-13.87131c0,-4.37158 0.89661,-8.30875 2.68985,-11.81162c1.79324,-3.50287 4.25212,-6.47326 7.37671,-8.91126c3.12458,-2.438 6.80611,-4.31551 11.04468,-5.63259c4.23857,-1.31708 8.83028,-1.97561 13.77528,-1.97561zm18.74743,91.88687c0,-1.40115 -0.42113,-2.52205 -1.26341,-3.36274c-0.84228,-0.84069 -1.98342,-1.51323 -3.42345,-2.01765c-1.44002,-0.50441 -3.12456,-0.8687 -5.05365,-1.09289c-1.92909,-0.22418 -4.00759,-0.39232 -6.23556,-0.50441c-2.22796,-0.11209 -4.53741,-0.21017 -6.9284,-0.29424c-2.39098,-0.08407 -4.75477,-0.26621 -7.09141,-0.54644c-1.57588,1.12092 -2.86645,2.36792 -3.87176,3.74105c-1.0053,1.37312 -1.50794,2.92837 -1.50794,4.6658c0,1.23301 0.25811,2.35391 0.77435,3.36274c0.51623,1.00883 1.42643,1.87752 2.7306,2.60612c1.30418,0.7286 3.05664,1.30306 5.25743,1.72341c2.2008,0.42034 4.98572,0.63051 8.35484,0.63051c3.64082,0 6.62951,-0.22418 8.96616,-0.67255c2.33665,-0.44837 4.19779,-1.06486 5.58347,-1.84951c1.38569,-0.78464 2.35022,-1.72339 2.89363,-2.81629c0.5434,-1.0929 0.8151,-2.28386 0.8151,-3.57291zm-18.74743,-51.36586c4.18423,0 7.21368,-1.07886 9.08843,-3.23663c1.87475,-2.15777 2.81211,-4.94602 2.81211,-8.36482c0,-3.53089 -0.93736,-6.30513 -2.81211,-8.32278c-1.87475,-2.01765 -4.9042,-3.02647 -9.08843,-3.02647c-4.18423,0 -7.21367,1.00882 -9.08842,3.02647c-1.87476,2.01765 -2.81212,4.79189 -2.81212,8.32278c0,1.68138 0.23094,3.22262 0.69284,4.62377c0.4619,1.40115 1.1819,2.62013 2.16003,3.65698c0.97813,1.03685 2.21436,1.8495 3.70873,2.43799c1.49437,0.58848 3.274,0.88271 5.33894,0.88271z"/>
   </g>
  </g>
 </g>
</svg>
