<svg width="677" height="186" viewBox="0 0 677 186" fill="none" xmlns="http://www.w3.org/2000/svg">
<path d="M253.86 80.3801C265.2 80.3801 272.55 87.7601 272.55 101.56V139.15C272.55 140.98 271.53 142 269.7 142H259.92C258.09 142 257.07 140.98 257.07 139.15V102.73C257.07 96.7601 253.53 94.7201 249.42 94.7201C245.22 94.7201 240.54 97.0301 240.54 104.86V139.15C240.54 140.98 239.52 142 237.69 142H227.91C226.08 142 225.06 140.98 225.06 139.15V102.73C225.06 96.7601 221.52 94.7201 217.41 94.7201C213.21 94.7201 208.53 97.0301 208.53 104.86V139.15C208.53 140.98 207.51 142 205.68 142H195.9C194.07 142 193.05 140.98 193.05 139.15V84.8501C193.05 83.0201 194.07 82.0001 195.9 82.0001H205.68C207.51 82.0001 208.53 83.0201 208.53 84.8501V87.8549C211.778 82.9865 216.862 80.3801 222.9 80.3801C229.136 80.3801 234.293 83.0909 237.388 88.2989C241.446 83.1449 246.846 80.3801 253.86 80.3801ZM313.68 143.62C296.07 143.62 281.94 129.85 281.94 112C281.94 94.1501 296.07 80.3801 313.68 80.3801C331.29 80.3801 345.42 94.1501 345.42 112C345.42 129.85 331.29 143.62 313.68 143.62ZM313.68 128.56C322.86 128.56 329.94 121.72 329.94 112C329.94 102.28 322.86 95.4401 313.68 95.4401C304.5 95.4401 297.42 102.28 297.42 112C297.42 121.72 304.5 128.56 313.68 128.56ZM388.17 80.3801H388.169C399.329 80.3801 407.669 88.9601 407.669 103.66V139.15C407.669 140.98 406.649 142 404.819 142H395.039C393.209 142 392.189 140.98 392.189 139.15V104.83C392.189 97.9601 388.109 94.7201 382.679 94.7201C376.589 94.7201 371.849 98.2301 371.849 107.26V139.15C371.849 140.98 370.829 142 368.999 142H359.219C357.389 142 356.369 140.98 356.369 139.15V84.8501C356.369 83.0201 357.389 82.0001 359.219 82.0001H368.999C370.829 82.0001 371.849 83.0201 371.849 84.8501V88.1669C375.209 83.0921 380.71 80.3801 388.17 80.3801ZM448.41 82.0001C450.24 82.0001 451.26 83.0201 451.26 84.8501V94.0301C451.26 95.8601 450.24 96.8801 448.41 96.8801H440.94V139.15C440.94 140.98 439.92 142 438.09 142H428.31C426.48 142 425.46 140.98 425.46 139.15V96.8801H417.96C416.13 96.8801 415.11 95.8601 415.11 94.0301V84.8501C415.11 83.0201 416.13 82.0001 417.96 82.0001H425.46V65.6501C425.46 63.8201 426.48 62.8001 428.31 62.8001H438.09C439.92 62.8001 440.94 63.8201 440.94 65.6501V82.0001H448.41ZM488.94 80.3801C506.67 80.3801 518.91 94.3601 518.91 112.06C518.91 113.35 518.82 114.55 518.73 115.75C518.52 117.58 517.38 118.39 515.67 118.39H473.25C475.354 126.916 481.83 130.81 489.51 130.81C494.04 130.81 498.09 129.01 500.46 126.43C501.54 125.44 502.47 124.84 503.97 124.84L513.57 124.75C515.64 124.75 516.78 126.07 515.91 127.87C511.38 137.98 501.54 143.62 489.3 143.62C469.77 143.62 457.14 129.94 457.14 112C457.14 94.1801 470.07 80.3801 488.94 80.3801ZM473.185 106.21H503.441C501.65 97.6349 495.344 94.2701 488.85 94.2701C480.64 94.2701 475.025 98.6957 473.185 106.21ZM558.39 81.0701C560.31 80.7701 561.33 81.9701 561.33 83.8001V95.1401C561.33 96.9401 560.55 97.9001 559.14 97.9001C551.85 97.8701 544.89 101.71 544.89 112.42V139.15C544.89 140.98 543.87 142 542.04 142H532.26C530.43 142 529.41 140.98 529.41 139.15V84.8501C529.41 83.0201 530.43 82.0001 532.26 82.0001H542.04C543.87 82.0001 544.89 83.0201 544.89 84.8501V91.0613C547.476 84.9425 552.434 81.8261 558.39 81.0701ZM593.88 80.3801V80.3813C607.14 80.3813 618.3 88.2713 618.3 103.901V139.151C618.3 140.981 617.28 142.001 615.45 142.001H606.03C604.2 142.001 603.18 140.981 603.18 139.151V136.804C599.728 141.014 594.528 143.62 586.92 143.62C576.24 143.62 566.7 137.35 566.7 124.75C566.7 112.15 576.24 105.88 586.92 105.88C594.528 105.88 599.728 108.156 603.18 111.192V104.8C603.18 97.6901 599.58 94.7201 593.88 94.7201C589.35 94.7201 586.02 96.6101 585 99.8501C584.37 101.47 583.74 102.4 582.03 102.4H572.43C570.6 102.4 569.46 101.38 569.58 99.4301C571.08 87.1601 581.58 80.3801 593.88 80.3801ZM592.17 132.221C598.98 132.221 603.18 129.071 603.18 124.751C603.18 120.131 598.98 117.281 592.17 117.281C585.36 117.281 582.18 120.431 582.18 124.751C582.18 129.071 585.36 132.221 592.17 132.221ZM633.78 73.6001C631.95 73.6001 630.93 72.5801 630.93 70.7501V60.8501C630.93 59.0201 631.95 58.0001 633.78 58.0001H643.56C645.39 58.0001 646.41 59.0201 646.41 60.8501V70.7501C646.41 72.5801 645.39 73.6001 643.56 73.6001H633.78ZM633.78 142C631.95 142 630.93 140.98 630.93 139.15V84.8501C630.93 83.0201 631.95 82.0001 633.78 82.0001H643.56C645.39 82.0001 646.41 83.0201 646.41 84.8501V139.15C646.41 140.98 645.39 142 643.56 142H633.78ZM663.42 142C661.59 142 660.57 140.98 660.57 139.15V58.4501C660.57 56.6201 661.59 55.6001 663.42 55.6001H673.2C675.03 55.6001 676.05 56.6201 676.05 58.4501V139.15C676.05 140.98 675.03 142 673.2 142H663.42Z" fill="#EC1115"/>
<path fill-rule="evenodd" clip-rule="evenodd" d="M162.16 5.67652L110.593 57.3119H26.7426C24.5317 57.3119 21.9619 58.9273 21.005 60.9152L0.491185 103.533C-0.466711 105.523 0.0180727 108.4 1.58294 109.967L50.3001 158.772L58.6249 167.105L64.6944 173.19L76.2991 184.814C77.8594 186.376 80.3853 186.38 81.9474 184.815L146.383 120.252C147.943 118.689 149.207 115.631 149.207 113.416V85.7812L154.764 80.0923C156.305 78.514 157.555 75.4429 157.555 73.233V51.1682L162.16 46.741L167.93 40.957C169.491 39.3919 170.757 36.3329 170.757 34.1309V5.07123C170.757 0.652612 168.224 -0.393876 165.107 2.72689L162.16 5.67652ZM56.0901 152.686L134.231 74.8929L148.954 60.0565V76.6869L143.375 82.3287L140.627 85.1142L139.656 86.1057L64.417 160.995L56.0901 152.686ZM78.9959 175.531L70.6253 167.197L140.819 97.2731L140.879 97.2021V113.869L78.9959 175.531ZM162.682 34.6836L141.105 56.2264L137.263 60.053L130.808 66.5017L50.6856 146.46L42.3624 138.157L114.611 66.0529L162.682 18.0659V34.6836Z" fill="#EC1115"/>
</svg>
