<svg width="104" height="28" viewBox="0 0 104 28" fill="none" xmlns="http://www.w3.org/2000/svg">
<path fill-rule="evenodd" clip-rule="evenodd" d="M7.31329 0C7.08122 0 6.85867 0.0921874 6.69457 0.256282L0 6.95086L13.4752 6.95084C13.9584 6.95084 14.3502 7.3426 14.3502 7.82584L14.3501 21.301L21.0448 14.6064C21.2088 14.4423 21.301 14.2198 21.301 13.9877V0.875C21.301 0.391751 20.9092 0 20.426 0H7.31329ZM34.7564 7.73983H31.85V4.6504H34.7564V0H38.3159V4.6504H42.3327V7.73983H38.3159V16.4228C38.3159 17.0732 38.4466 17.5394 38.7079 17.8211C38.9692 18.0814 39.4154 18.2114 40.0468 18.2114H42.7247V21.3008H39.3283C37.7391 21.3008 36.5743 20.9323 35.8341 20.1952C35.1157 19.4581 34.7564 18.3197 34.7564 16.7805V7.73983ZM53.8592 4.6504V7.93496H52.2918C50.833 7.93496 49.7772 8.41192 49.1241 9.36586C48.4708 10.2981 48.1442 11.4905 48.1442 12.9431V21.3008H44.6175V4.6504H47.7524L48.1442 7.15447C48.6232 6.37399 49.2438 5.76693 50.0057 5.33333C50.7677 4.87806 51.7909 4.6504 53.0754 4.6504H53.8592ZM54.9661 8.52033C54.2913 9.79946 53.9537 11.2954 53.9537 13.0081C53.9537 14.6992 54.3022 16.1843 54.9988 17.4634C55.7172 18.7425 56.7187 19.7398 58.0032 20.4552C59.3094 21.1491 60.8333 21.4959 62.5751 21.4959C64.578 21.4959 66.2435 20.954 67.5715 19.8699C68.9213 18.7859 69.7487 17.3984 70.0534 15.7073H66.5266C66.287 16.6396 65.7972 17.3658 65.057 17.8862C64.3167 18.3848 63.4023 18.6342 62.3138 18.6342C60.9422 18.6342 59.8428 18.2114 59.0156 17.3658C58.1882 16.5203 57.7311 15.3713 57.644 13.9187V13.7236H70.2494C70.3147 13.2683 70.3474 12.8238 70.3474 12.3902C70.3255 10.7859 69.9554 9.38754 69.237 8.19513C68.5403 7.00271 67.5715 6.0813 66.3306 5.4309C65.1114 4.78049 63.6963 4.45529 62.0853 4.45529C60.4959 4.45529 59.0809 4.81301 57.84 5.52846C56.6207 6.22223 55.6628 7.21952 54.9661 8.52033ZM65.2855 8.3252C66.1129 8.99729 66.6027 9.94038 66.7552 11.1545H57.7745C57.9052 9.98373 58.3842 9.05149 59.2114 8.35772C60.0605 7.64228 61.0621 7.28455 62.2158 7.28455C63.4568 7.28455 64.48 7.63143 65.2855 8.3252ZM71.7171 4.6504H85.4002V7.15447L76.0604 18.2114H85.8247V21.3008H71.3253V18.7968L80.665 7.73983H71.7171V4.6504ZM103.272 21.008V4.6504H99.7456V12.9106C99.7456 14.6016 99.3647 15.9241 98.6025 16.878C97.8625 17.832 96.8282 18.309 95.5003 18.309C94.2158 18.309 93.247 17.9079 92.5937 17.1057C91.9406 16.3035 91.6141 15.1111 91.6141 13.5285V4.6504H88.0546V13.8862C88.0546 16.5095 88.6641 18.4173 89.8833 19.6098C91.1243 20.7806 92.7353 21.3659 94.7165 21.3659C95.9138 21.3659 96.9045 21.1383 97.6882 20.6829C98.4937 20.2277 99.1904 19.5881 99.7782 18.7642V21.008C99.7782 22.3307 99.4081 23.3496 98.668 24.0651C97.9494 24.7805 96.937 25.1382 95.6309 25.1382C93.3884 25.1382 92.0495 24.2168 91.6141 22.3739H88.0219C88.1743 24.1951 88.8927 25.5827 90.1772 26.5366C91.4835 27.5123 93.2034 28 95.3369 28C98.0147 28 100.007 27.3604 101.313 26.0813C102.619 24.8239 103.272 23.1327 103.272 21.008Z" fill="black"/>
</svg>
