<svg width="114" height="26" viewBox="0 0 114 26" fill="none" xmlns="http://www.w3.org/2000/svg">
<path fill-rule="evenodd" clip-rule="evenodd" d="M76.9969 10.227C78.4146 10.0287 79.5096 10.4046 79.7997 10.5077C81.493 11.1164 83.3549 12.7091 82.6377 16.8468C82.3801 18.538 81.7194 19.6199 81.2466 20.3226C78.991 23.6772 75.143 25.5881 70.5095 25.9505C62.5725 26.5715 55.6628 21.2768 55.0758 14.1242C54.4881 6.9716 60.4463 0.670152 68.3833 0.0491464C71.9338 -0.228945 75.2692 0.688302 77.9339 2.41584C78.1184 2.53576 78.1669 2.78403 78.0461 2.96554L76.1025 5.8936C75.981 6.07704 75.736 6.11918 75.5514 5.99472C73.714 4.75271 71.3475 4.08827 68.7313 4.29247C63.0639 4.73586 59.1708 8.99084 59.5685 13.8331C59.9662 18.6748 64.5035 22.2705 70.1708 21.8265C73.5055 21.5659 76.1948 19.966 77.7884 17.7225C78.5607 16.4734 78.5786 15.8381 78.483 15.0674C78.4239 14.5948 77.9451 14.4515 77.4704 14.5326L72.5029 15.2365C72.2844 15.2677 72.0819 15.1192 72.05 14.9059L71.5294 11.3951C71.4975 11.1819 71.6489 10.9842 71.8674 10.953L76.9969 10.227ZM89.6691 13.0602C89.6691 17.9174 93.8982 21.8554 99.5835 21.8554C105.269 21.8554 109.498 17.9174 109.498 13.0602C109.498 8.20298 105.269 4.26498 99.5835 4.26498C93.8982 4.26498 89.6691 8.20298 89.6691 13.0602ZM87.037 6.61482C89.5124 2.67293 94.1991 0.00804859 99.5835 0.00804859C107.546 0.00804859 114 5.82462 114 13.0005C114 20.1758 107.546 25.9924 99.5835 25.9924C93.5795 25.9924 88.4361 22.6832 86.268 17.979C86.2494 17.938 86.2331 17.896 86.2168 17.8539C86.2024 17.8166 86.188 17.7792 86.1718 17.7423C85.531 16.2722 85.1671 14.6756 85.1671 13.0005C85.1671 11.3249 85.531 9.72892 86.1718 8.25808C86.4194 7.68958 86.7063 7.14053 87.037 6.61482ZM36.6318 15.7104C38.2753 16.5304 40.2248 16.944 42.345 16.778C43.8364 16.6614 45.177 16.251 46.3696 15.6605L41.4871 4.22181L36.6318 15.7104ZM41.4891 0.0134937C42.2301 0.0134937 42.8988 0.22352 43.4094 0.558656C44.1777 0.961207 44.926 1.76372 45.6956 3.41152L55.2528 24.5711C55.3697 24.8284 55.1758 25.1188 54.8869 25.1188H50.6658C50.5044 25.1188 50.3584 25.0235 50.2966 24.8783L48.0482 19.6011C46.4373 20.3012 44.6379 20.7491 42.6837 20.9021C39.928 21.1179 37.3051 20.6071 35.0216 19.5628L32.6703 24.8829C32.6072 25.0261 32.4631 25.1188 32.3038 25.1188H28.0766C27.7885 25.1188 27.5952 24.8297 27.7108 24.5717L37.2128 3.40504C38.084 1.54008 38.9386 0.74016 39.8277 0.40308C40.2979 0.159346 40.8689 0.0134937 41.4891 0.0134937ZM32.3468 0.788648L29.8242 0.262285H29.8249C29.4823 0.181904 29.1357 0.10995 28.7857 0.0457756C28.5765 0.00817823 28.368 0.138473 28.3149 0.339424L28.202 0.935797C28.1423 1.30464 28.0686 1.73118 27.9869 2.13956C26.8116 7.6936 22.2299 11.8397 16.3308 11.8397C10.4908 11.8397 5.9376 7.77852 4.70651 2.3094L4.7012 2.31718C4.63812 2.00797 4.4668 0.972746 4.37318 0.39582L4.3672 0.367298C4.3174 0.179311 4.13147 0.0587402 3.93692 0.0742978L0.324671 0.82819C0.116834 0.870973 -0.0259293 1.06868 0.00395144 1.27417C0.192532 2.57517 0.505283 3.83274 0.945526 5.02484C0.963755 5.0737 0.980116 5.12369 0.99648 5.17369C1.01528 5.23114 1.03409 5.28861 1.05575 5.34441C3.27556 11.0216 8.21849 15.1729 14.1495 16.0065V24.755C14.1495 24.9702 14.3288 25.1453 14.5492 25.1453H18.2558C18.4769 25.1453 18.6562 24.9702 18.6562 24.755V15.991C25.8733 14.9078 31.5885 8.88505 32.6689 1.23463C32.6974 1.02914 32.5547 0.83208 32.3468 0.788648Z" fill="#02504B"/>
</svg>
