<svg width="810" height="810" viewBox="0 0 810 810" fill="none" xmlns="http://www.w3.org/2000/svg">
<g clip-path="url(#clip0_32_2)">
<path d="M66.4004 241.533C30.1338 291.133 0.267085 332.467 0.000418021 333.133C-0.399582 334.6 286.4 658.2 288.534 658.6C289.067 658.867 301.867 644.867 316.934 627.8C332 610.733 344.667 596.6 345.2 596.6C345.734 596.467 358.667 610.467 373.734 627.4C388.934 644.467 401.734 658.6 402.134 658.867C402.667 659 415.6 645.133 430.8 627.8C446.134 610.6 458.934 596.467 459.467 596.467C459.867 596.467 473.2 610.467 488.934 627.667C504.667 644.867 518 659 518.534 659C520.134 659.267 810.267 334.6 809.867 333.133C809.6 332.467 779.734 291.133 743.467 241.533L677.6 151.267H404.934H132.267L66.4004 241.533ZM210.667 202.067C209.867 203 187.6 233 161.067 268.867L112.8 333.8L212.934 447.4L313.2 560.867L300.8 573.267C294 580.2 288 585.267 287.467 584.733C280.534 576.867 69.7338 343.533 66.0004 339.667L60.6671 334.067L109.067 267.267L157.467 200.467H184.667C206.267 200.467 211.6 200.867 210.667 202.067ZM324.934 201.133C324.934 201.4 304 231.4 278.267 267.8L231.6 333.8L328.934 444.467C382.534 505.267 426.267 555.533 426.267 556.067C426.267 556.733 420.667 562.733 414 569.4L401.6 581.533L290.267 458.733C229.067 391.133 178.934 334.867 178.934 333.533C178.934 332.333 199.6 301.933 224.934 265.933L270.934 200.6L298 200.467C312.8 200.467 324.934 200.733 324.934 201.133ZM695.734 265.8C722 301.4 743.6 330.733 743.6 331.133C743.6 332.467 519.867 582.067 518.8 581.933C516.267 581.8 294.267 334.6 294.934 332.733C295.467 331.133 355.6 245.4 379.867 211.4L387.734 200.467L517.867 200.733L648 201.133L695.734 265.8Z" fill="#CA3A31"/>
</g>
<defs>
<clipPath id="clip0_32_2">
<rect width="809.87" height="809.87" fill="white"/>
</clipPath>
</defs>
</svg>
