<svg width="254" height="76" viewBox="0 0 254 76" fill="none" xmlns="http://www.w3.org/2000/svg">
<g clip-path="url(#clip0)">
<path d="M224.442 75.996C222.978 76.0196 221.514 75.9368 220.062 75.7483V66.593C221.289 66.6718 222.01 66.7507 223.316 66.7507C226.312 66.7507 228.012 65.9399 229.397 62.8543L230.85 59.6112L219.082 18.5083H230.839L236.571 43.7218L242.314 18.5083H253.755C253.755 18.5083 244.498 52.4942 240.658 63.5525C238.035 71.1875 233.936 75.996 224.442 75.996Z" fill="#DC3E09"/>
<path d="M25.1442 59.331C22.8132 63.3287 19.6826 65.3444 15.6849 65.3444C13.9823 65.4128 12.2843 65.1223 10.7012 64.4918C9.11809 63.8613 7.68532 62.9049 6.49593 61.6846C4.14236 59.1734 3.01626 55.8401 3.01626 51.651C2.9192 49.606 3.25751 47.5638 4.00879 45.6594C4.76008 43.7549 5.90721 42.0318 7.37429 40.6039C10.3022 37.8674 14.8516 36.4823 21.034 36.4823H25.1442V31.8878C25.1442 28.4419 23.365 26.7077 19.7615 26.7077C16.7097 26.7077 14.5814 27.9352 13.4327 30.3901L12.2391 32.8788H5.18964L4.79551 22.192C8.64679 18.8926 13.6242 17.2822 19.8065 17.2822C30.2117 17.2822 36.1576 22.4285 36.1576 32.3608V55.0518L39.3219 55.4459V64.5561H25.1442V59.331ZM25.1442 43.4867H21.4281C16.0791 43.4867 13.9395 45.9191 13.9395 50.0632C13.9395 53.7455 15.7638 55.5698 19.4011 55.5698C23.0384 55.5698 24.7951 53.8244 25.1442 50.2996V43.4867Z" fill="#DC3E09"/>
<path d="M42.1034 27.6537V18.1494H56.9905V23.4984C59.6819 19.3431 63.094 17.2823 67.2043 17.2823C70.5473 17.2733 73.8017 18.3568 76.4721 20.3678V34.2302H67.2043L66.2133 30.8519C66.0113 29.726 65.4034 28.7132 64.5048 28.0055C63.6061 27.2978 62.4791 26.9443 61.3373 27.0118C58.0152 27.0118 55.763 30.2663 54.5806 36.7527L51.4388 55.0519H56.9792V64.5562H36.1575V55.0519H40.448L45.279 27.6537H42.1034Z" fill="#DC3E09"/>
<path d="M111.404 64.5552H100.481C100.278 61.1393 97.7443 55.5688 92.8795 47.8438L91.7534 46.301L88.6003 50.2649V64.5552H77.632V2H88.6003V36.4814L92.6768 31.3801C96.8659 26.1887 99.0843 21.7969 99.287 18.1484H110.21L110.131 19.6573C109.891 23.8164 106.828 29.477 100.942 36.639L98.7352 39.2516L100.864 42.461C107.62 52.0779 110.999 58.9246 111.246 62.9336L111.404 64.5552Z" fill="#DC3E09"/>
<path d="M116.607 60.6367C113.318 57.5061 111.67 52.3974 111.663 45.3104V37.3489C111.663 30.2694 113.311 25.1644 116.607 22.0338C119.893 18.9923 124.206 17.3027 128.684 17.3027C133.162 17.3027 137.475 18.9923 140.761 22.0338C144.038 25.1644 145.705 30.3107 145.705 37.3939V43.1821H122.62V47.9343C122.62 53.272 125.154 55.9634 129.151 55.9634C130.453 56.0393 131.748 55.7307 132.875 55.0759C134.003 54.4211 134.912 53.4491 135.491 52.281L136.719 49.7923H144.906V60.4791C140.166 63.7932 134.494 65.5128 128.712 65.3889C124.208 65.4628 119.857 63.7549 116.607 60.6367ZM134.771 35.6935C134.771 31.9323 134.174 29.3535 133.025 27.9684C132.515 27.314 131.86 26.7871 131.112 26.4294C130.363 26.0718 129.542 25.8931 128.712 25.9076C127.876 25.8913 127.047 26.0689 126.291 26.4265C125.535 26.784 124.872 27.3118 124.354 27.9684C123.228 29.3535 122.609 31.9323 122.609 35.6935H134.771Z" fill="#DC3E09"/>
<path d="M180.603 64.5544H169.59V34.859C169.59 31.6947 169.162 29.5889 168.284 28.5641C167.842 28.024 167.277 27.5978 166.636 27.3215C165.995 27.0452 165.297 26.9268 164.601 26.9763C161.876 26.9763 160.209 28.8456 159.534 32.6068V64.5544H148.532V18.1476H159.545V23.4966C161.966 19.499 165.175 17.4832 169.049 17.4832C170.644 17.4325 172.229 17.753 173.679 18.4194C175.129 19.0858 176.405 20.0798 177.405 21.3232C179.545 23.8908 180.614 28.3952 180.614 34.8365L180.603 64.5544Z" fill="#DC3E09"/>
<path d="M207.652 52.2802L208.88 49.7803H217.078V60.4332C213.238 63.7215 208.069 65.3431 201.515 65.3431C199.155 65.4411 196.801 65.0562 194.595 64.212C192.389 63.3677 190.38 62.0818 188.689 60.4332C185.445 57.145 183.824 52.2352 183.824 45.7038V36.9089C183.824 30.3775 185.445 25.4676 188.689 22.1794C190.379 20.528 192.388 19.238 194.593 18.3881C196.798 17.5382 199.153 17.1461 201.515 17.2358C206.99 17.0454 212.358 18.783 216.684 22.1456V32.8324H208.497L207.314 30.3437C206.847 29.2081 206.04 28.2448 205.004 27.5857C203.967 26.9265 202.753 26.6036 201.526 26.6613C200.561 26.5857 199.592 26.7521 198.707 27.1453C197.822 27.5386 197.049 28.1463 196.459 28.9135C195.333 30.4225 194.882 33.0351 194.882 36.7174V46.2556C194.882 52.6293 196.943 55.9175 201.526 55.9175C202.797 56.014 204.067 55.7165 205.163 55.0657C206.259 54.4149 207.128 53.4424 207.652 52.2802Z" fill="#DC3E09"/>
</g>
<defs>
<clipPath id="clip0">
<rect width="254" height="76" fill="white"/>
</clipPath>
</defs>
</svg>
