<svg width="800" height="395" viewBox="0 0 800 395" fill="none" xmlns="http://www.w3.org/2000/svg">
<path fill-rule="evenodd" clip-rule="evenodd" d="M603.179 104.525V299.727C603.179 319.288 598.021 336.423 587.842 350.654C577.667 364.866 563.64 375.785 546.157 383.097C528.662 390.401 508.817 394.105 487.17 394.105C464.473 394.105 444.496 390.073 427.794 382.112C420.814 378.789 396.908 365.855 382.128 339.102C381.223 337.468 381.115 335.514 381.828 333.788C382.537 332.066 383.998 330.761 385.788 330.24L436.951 315.384C437.516 315.22 438.093 315.14 438.661 315.14C440.403 315.14 442.097 315.881 443.278 317.23C449.705 324.566 456.008 329.924 462.002 333.155C468.794 336.807 477.263 338.657 487.17 338.657C502.298 338.657 515.068 334.753 525.119 327.057C535.165 319.357 540.259 308.044 540.259 293.437V280.066C524.342 294.418 503.703 301.693 478.913 301.693C461.69 301.693 445.485 297.261 430.741 288.519C415.993 279.778 404.152 267.272 395.547 251.355C386.934 235.442 382.569 217.186 382.569 197.089C382.569 177.003 386.934 158.807 395.547 143.018C404.156 127.233 415.997 114.732 430.741 105.858C445.489 96.9885 461.694 92.4877 478.913 92.4877C503.695 92.4877 524.334 99.7635 540.259 114.115V104.525C540.259 101.133 543.006 98.386 546.398 98.386H597.04C600.432 98.386 603.179 101.133 603.179 104.525ZM533.572 223.633C538.008 215.937 540.259 207.011 540.259 197.089C540.259 187.438 538.008 178.573 533.572 170.744C529.135 162.916 523.181 156.761 515.877 152.456C508.569 148.152 500.5 145.969 491.887 145.969C478.06 145.969 466.547 150.799 457.678 160.321C448.804 169.851 444.307 182.221 444.307 197.089C444.307 212.225 448.804 224.658 457.678 234.056C466.547 243.447 478.056 248.212 491.887 248.212C500.5 248.212 508.569 246.029 515.877 241.725C523.185 237.416 529.139 231.33 533.572 223.633Z" fill="black"/>
<path d="M786.241 197.277C777.107 186.978 763.36 179.77 745.385 175.854C745.357 175.85 745.329 175.842 745.301 175.838L698.959 166.411C693.201 165.102 689.24 163.252 687.154 160.906C685.036 158.527 684.007 155.828 684.007 152.645C684.007 148.472 685.793 144.836 689.316 141.833C692.892 138.794 698.49 137.316 706.419 137.316C715.549 137.316 723.157 139.562 729.027 143.995C733.244 147.183 736.255 150.955 737.977 155.199C738.938 157.566 741.224 159.035 743.667 159.035C744.232 159.035 744.808 158.955 745.377 158.791L789.256 146.053C790.938 145.561 792.336 144.376 793.089 142.794C793.841 141.208 793.881 139.378 793.197 137.761C788.039 125.583 779.526 115.789 767.169 107.824C751.383 97.6452 731.21 92.4877 707.208 92.4877C690.762 92.4877 675.946 95.2667 663.164 100.745C650.382 106.222 640.263 114.095 633.088 124.138C625.812 134.325 622.276 145.833 622.276 159.332C622.276 174.949 627.161 187.298 637.216 197.081C647.127 206.735 661.418 213.35 679.682 216.742L719.741 224.594C719.769 224.598 719.801 224.606 719.829 224.61C732.847 226.965 739.447 231.858 739.447 239.15C739.447 243.591 737.136 247.359 732.567 250.358C728.006 253.361 721.723 254.879 713.891 254.879C704.753 254.879 696.881 252.961 690.498 249.181C685.6 246.286 682.281 242.361 680.339 237.172C679.422 234.721 677.091 233.183 674.593 233.183C674.024 233.183 673.447 233.26 672.879 233.428L624.451 247.487C622.841 247.955 621.487 249.069 620.714 250.558C619.942 252.052 619.813 253.794 620.362 255.383C625.127 269.186 634.045 279.63 647.635 287.318C664.47 296.84 685.568 301.673 710.351 301.673C736.96 301.673 758.792 295.847 775.229 284.371C791.667 272.89 800 256.352 800 235.222C800 220.149 795.499 207.736 786.241 197.277Z" fill="black"/>
<path d="M274.036 136.034H147.043C143.651 136.034 140.904 138.781 140.904 142.173V184.999C140.904 188.391 143.651 191.138 147.043 191.138H211.937C210.407 195.518 208.489 199.755 206.239 203.735C199.455 215.748 190.053 225.279 178.292 232.074C167.108 238.541 154.551 241.973 140.972 242.277H140.82C127.265 241.977 114.704 238.541 103.516 232.074C91.755 225.279 82.3529 215.744 75.5696 203.735C68.7782 191.73 65.3345 178.224 65.3345 163.588C65.3345 148.96 68.6421 135.518 75.1731 123.637C81.6962 111.76 90.8341 102.294 102.33 95.4945C113.827 88.7031 126.805 85.2594 140.904 85.2594C155.003 85.2594 167.981 88.7031 179.478 95.4945C186.982 99.9353 193.553 105.581 198.999 112.281C200.184 113.738 201.942 114.547 203.76 114.547C204.333 114.547 204.905 114.471 205.474 114.303L257.278 99.2625C259.136 98.722 260.629 97.3405 261.31 95.5305C261.991 93.7246 261.783 91.6984 260.741 90.0686C248.564 70.968 232.211 55.5113 212.145 44.1311C190.738 31.9859 166.768 25.8313 140.904 25.8313C115.04 25.8313 91.0703 31.9859 69.6632 44.1311C48.2401 56.2802 31.0936 73.0302 18.6962 93.9208C6.29079 114.815 0 138.257 0 163.588C0 188.923 6.35486 212.361 18.8924 233.251C31.4219 254.146 48.7046 270.9 70.2558 283.045C91.4427 294.982 115.196 301.132 140.848 301.325H140.96C166.628 301.132 190.365 294.982 211.552 283.045C233.104 270.9 250.382 254.15 262.916 233.251C275.453 212.361 281.808 188.923 281.808 163.588C281.808 156.02 281.236 148.496 280.098 141.224C279.634 138.237 277.059 136.034 274.036 136.034Z" fill="black"/>
<path d="M361.203 96.2428C360.13 95.4339 358.832 95.0095 357.519 95.0095C356.942 95.0095 356.37 95.0935 355.805 95.2537L305.17 109.954C302.547 110.718 300.741 113.121 300.741 115.852V289.327C300.741 292.719 303.492 295.466 306.88 295.466H357.519C360.906 295.466 363.657 292.719 363.657 289.327V101.148C363.657 99.218 362.748 97.4 361.203 96.2428Z" fill="black"/>
<path d="M361.203 19.2293C360.13 18.4205 358.832 18 357.519 18C356.942 18 356.37 18.0801 355.805 18.2402L305.17 32.9441C302.547 33.705 300.741 36.1075 300.741 38.8385V78.4693C300.741 80.3994 301.65 82.2173 303.196 83.3786C304.269 84.1874 305.567 84.6119 306.88 84.6119C307.453 84.6119 308.029 84.5318 308.594 84.3636L359.229 69.6638C361.851 68.9029 363.657 66.5003 363.657 63.7694V24.1386C363.657 22.2085 362.748 20.3866 361.203 19.2293Z" fill="black"/>
</svg>
