<?xml version="1.0" encoding="utf-8"?>
<!-- Generator: Adobe Illustrator 26.0.3, SVG Export Plug-In . SVG Version: 6.00 Build 0)  -->
<svg version="1.1" id="Ebene_1" xmlns="http://www.w3.org/2000/svg" xmlns:xlink="http://www.w3.org/1999/xlink" x="0px" y="0px"
	 viewBox="0 0 283.46 84.72" style="enable-background:new 0 0 283.46 84.72;" xml:space="preserve">
<style type="text/css">
	.st0{fill:#06038D;}
	.st1{fill:#47D7AC;}
</style>
<g>
	<path class="st0" d="M24.48,27.74l14.53,31.3c0.75,0.35,1.99,0.17,2.78-0.2c5.84-2.72,3.97-11.86-0.01-20.4
		c-0.02-0.05-0.05-0.1-0.08-0.15c-0.02-0.06-0.03-0.12-0.06-0.18l-4.83-10.36c-0.58-1.25-2.29-2.26-3.8-2.26h-6.83
		C24.65,25.48,23.89,26.5,24.48,27.74L24.48,27.74z"/>
	<path class="st1" d="M58.94,27.75l-6.8,14.57c-0.75,0.35-1.99,0.17-2.78-0.21c-5.06-2.36-5.44-7.9-3.25-15.33
		c0.09-0.55,0.48-0.9,0.78-1.06c0.58-0.31,1.18-0.23,2.35-0.23h8.01C58.76,25.49,59.52,26.5,58.94,27.75L58.94,27.75z"/>
	<path class="st0" d="M93.58,46.83c-0.98-0.96-1.47-2.32-1.47-4.07c0-1.75,0.49-3.1,1.47-4.05c0.98-0.95,2.15-1.42,3.51-1.42
		c1.39,0,2.57,0.47,3.54,1.4c0.96,0.93,1.45,2.29,1.45,4.07c0,1.78-0.48,3.14-1.45,4.09c-0.96,0.95-2.14,1.42-3.54,1.42
		C95.73,48.27,94.56,47.79,93.58,46.83L93.58,46.83z M88.73,34.37c-2.25,2.21-3.38,5-3.38,8.38c0,3.38,1.13,6.18,3.38,8.41
		c2.25,2.22,5.04,3.34,8.36,3.34c3.35,0,6.14-1.1,8.38-3.31c2.24-2.21,3.36-5.02,3.36-8.43c0-3.41-1.12-6.21-3.36-8.4
		c-2.24-2.19-5.03-3.29-8.38-3.29C93.77,31.06,90.99,32.16,88.73,34.37L88.73,34.37z"/>
	<polygon class="st0" points="153.32,31.7 148.6,45.44 143.49,31.7 136.15,31.7 145.22,53.8 152.03,53.8 160.43,31.7 153.32,31.7 	
		"/>
	<path class="st0" d="M219.13,37.53c0.77-0.77,1.81-1.16,3.11-1.16c1.45,0,2.54,0.37,3.27,1.11c0.73,0.74,1.12,1.62,1.18,2.62h-8.85
		C217.93,39.16,218.36,38.3,219.13,37.53L219.13,37.53z M222.73,48.73c-1.33,0-2.49-0.41-3.47-1.22c-0.98-0.82-1.5-1.83-1.56-3.05
		h15.39c0.09-0.27,0.13-0.96,0.13-2.09c0-3.56-0.99-6.34-2.96-8.34s-4.68-3-8.12-3c-3,0-5.58,1.08-7.76,3.25
		c-2.18,2.16-3.27,4.97-3.27,8.41c0,3.59,1.12,6.45,3.36,8.58c2.24,2.13,4.96,3.2,8.16,3.2c2.67,0,4.89-0.66,6.67-1.98
		c1.78-1.32,2.95-3,3.51-5.05l-5.65-1.6C226.5,47.77,225.02,48.73,222.73,48.73L222.73,48.73L222.73,48.73z"/>
	<path class="st0" d="M195.84,53.79V30.32v-0.07v-6.53c-3.62,0-6.56,2.92-6.6,6.53h0v23.55H195.84L195.84,53.79z"/>
	<path class="st0" d="M135.75,42.75c0-3.41-1.12-6.21-3.36-8.4c-2.24-2.19-5.03-3.29-8.38-3.29c-1.89,0-3.6,0.37-5.14,1.08v-8.41
		c-3.62,0-6.55,2.91-6.6,6.52h0v12.62h0.01c0.03,3.33,1.15,6.09,3.37,8.29c2.25,2.22,5.04,3.34,8.36,3.34c3.35,0,6.14-1.1,8.38-3.31
		C134.63,48.96,135.75,46.16,135.75,42.75L135.75,42.75z M128.99,42.75c0,1.78-0.48,3.14-1.44,4.09c-0.96,0.95-2.14,1.42-3.54,1.42
		c-1.36,0-2.54-0.48-3.51-1.45c-0.98-0.96-1.47-2.32-1.47-4.07c0-1.75,0.49-3.1,1.47-4.05c0.98-0.95,2.15-1.42,3.51-1.42
		c1.39,0,2.57,0.47,3.54,1.4C128.51,39.61,128.99,40.97,128.99,42.75L128.99,42.75z"/>
	<path class="st0" d="M81.86,55.31V31.03c-3.59,0-6.52,2.91-6.67,6.55h-0.01v17.03c0,1.5-0.75,2.24-2.24,2.24
		c-0.7,0-1.36-0.09-1.98-0.26v5.54c0.97,0.41,2.2,0.62,3.7,0.62c2.2,0,3.95-0.68,5.26-2.05C81.21,59.34,81.86,57.54,81.86,55.31
		L81.86,55.31z"/>
	<path class="st0" d="M78.47,29.8c1.08,0,2.02-0.38,2.79-1.14c0.78-0.76,1.17-1.69,1.17-2.77c0-1.08-0.38-2.01-1.14-2.77
		c-0.76-0.76-1.7-1.14-2.82-1.14c-1.06,0-1.97,0.38-2.73,1.14c-0.76,0.76-1.14,1.69-1.14,2.77c0,1.09,0.38,2.01,1.14,2.77
		C76.51,29.42,77.42,29.8,78.47,29.8L78.47,29.8L78.47,29.8z"/>
	<path class="st0" d="M184.6,41.62c-0.23-2.9-1.33-5.32-3.31-7.27c-2.24-2.19-5.03-3.29-8.38-3.29c-3.32,0-6.11,1.1-8.36,3.31
		c-2.25,2.21-3.38,5-3.38,8.38c0,3.38,1.13,6.18,3.38,8.41c2.25,2.22,5.04,3.34,8.36,3.34c1.83,0,3.48-0.34,4.98-1
		c0,0,0.96-0.53,1.52-1.35l-0.03,1.64h5.27V42.78c0-0.01,0-0.01,0-0.02c0-0.01,0-0.01,0-0.02L184.6,41.62L184.6,41.62z
		 M176.44,38.69c0.96,0.93,1.44,2.28,1.44,4.04v0.05c0,1.77-0.49,3.12-1.44,4.06c-0.96,0.95-2.14,1.42-3.54,1.42
		c-1.36,0-2.54-0.48-3.51-1.45c-0.98-0.96-1.47-2.32-1.47-4.07c0-1.75,0.49-3.1,1.47-4.05c0.98-0.95,2.15-1.42,3.51-1.42
		C174.3,37.29,175.48,37.75,176.44,38.69L176.44,38.69z"/>
	<polygon class="st0" points="259.18,31.7 252.01,31.7 246.98,43.85 241.45,31.7 233.88,31.7 243.34,51.14 238.31,62.61 
		245.43,62.61 259.18,31.7 	"/>
	<path class="st0" d="M207.04,53.79V30.32v-0.07v-6.53c-3.62,0-6.56,2.92-6.6,6.53h0v23.55H207.04L207.04,53.79z"/>
</g>
</svg>
