<?xml version="1.0" encoding="UTF-8" standalone="no"?>
<!-- Generator: Adobe Illustrator 27.3.1, SVG Export Plug-In . SVG Version: 6.00 Build 0)  -->

<svg
   version="1.1"
   id="Layer_1"
   x="0px"
   y="0px"
   viewBox="0 0 304.89 53.43"
   style="enable-background:new 0 0 304.89 53.43;"
   xml:space="preserve"
   sodipodi:docname="WALTER - 2023-1.svg"
   inkscape:version="1.2.2 (1:1.2.2+202212051552+b0a8486541)"
   xmlns:inkscape="http://www.inkscape.org/namespaces/inkscape"
   xmlns:sodipodi="http://sodipodi.sourceforge.net/DTD/sodipodi-0.dtd"
   xmlns="http://www.w3.org/2000/svg"
   xmlns:svg="http://www.w3.org/2000/svg"><defs
   id="defs7" /><sodipodi:namedview
   id="namedview5"
   pagecolor="#ffffff"
   bordercolor="#000000"
   borderopacity="0.25"
   inkscape:showpageshadow="2"
   inkscape:pageopacity="0.0"
   inkscape:pagecheckerboard="0"
   inkscape:deskcolor="#d1d1d1"
   showgrid="false"
   inkscape:zoom="4.4015872"
   inkscape:cx="154.83051"
   inkscape:cy="30.670754"
   inkscape:window-width="1920"
   inkscape:window-height="1143"
   inkscape:window-x="0"
   inkscape:window-y="0"
   inkscape:window-maximized="1"
   inkscape:current-layer="Layer_1" />
<path
   d="M162.41,47.37h6.83c1.78,0.02,2.84,0.05,3.16,0.09c0.33,0.04,0.61,0.15,0.84,0.33c0.32,0.23,0.48,0.75,0.48,1.59  c0,0.79-0.15,1.31-0.44,1.55c-0.23,0.19-0.61,0.33-1.15,0.4c-0.54,0.07-1.51,0.11-2.9,0.11h-6.83V47.37z M256.51,46.15  c0.15,0.3,0.31,0.62,0.46,0.92l47.37-0.46L256.51,46.15z M208.58,45.69v1.86l35.01-0.33c-0.22-0.4-0.42-0.8-0.64-1.2L208.58,45.69z   M96.31,45.69L0.55,46.62l95.75,0.93V45.69z M162.41,41.66h6.83c1.54,0.03,2.47,0.08,2.79,0.11c0.31,0.04,0.56,0.12,0.75,0.27  c0.29,0.23,0.42,0.73,0.42,1.5c0,0.8-0.22,1.33-0.65,1.57c-0.22,0.12-0.52,0.2-0.93,0.24c-0.4,0.04-1.2,0.06-2.39,0.06h-6.83V41.66z   M184.46,39.72v13.66h2.21v-6.1h11.79v6.1h2.21V39.72h-2.21v5.62h-11.79v-5.62H184.46z M160.2,39.72v13.66h9.04  c1.13,0,2.08-0.03,2.81-0.09c0.88-0.07,1.54-0.17,1.99-0.31c0.45-0.14,0.84-0.37,1.15-0.68c0.53-0.55,0.8-1.5,0.8-2.88  c0-1.08-0.2-1.88-0.55-2.41c-0.36-0.52-0.88-0.83-1.61-0.88c0.57-0.07,0.98-0.31,1.23-0.77c0.26-0.46,0.4-1.14,0.4-2.04  c0-0.81-0.14-1.46-0.4-1.94c-0.51-0.94-1.44-1.46-2.78-1.57c-0.4-0.03-1.48-0.06-3.23-0.09H160.2z M129.44,39.72v13.66h2.21V41.75  h0.44l7.47,11.63h1.7l7.41-11.63h0.4v11.63h2.21V39.72h-3.91l-6.97,11.26l-7.08-11.26H129.44z M112.28,39.65  c-2.8,0-4.7,0.17-5.7,0.49c-1,0.32-1.65,1.01-1.92,2.06c-0.27,1.05-0.4,2.5-0.4,4.36c0,2.69,0.24,4.46,0.75,5.26  c0.47,0.74,1.23,1.18,2.28,1.35c1.12,0.18,3.04,0.27,5.75,0.27c2.89,0,4.74-0.15,5.57-0.42c0.65-0.22,1.14-0.51,1.46-0.88  c0.31-0.37,0.54-0.91,0.68-1.62c0.13-0.64,0.19-2.05,0.2-4.24h-9.16v1.94h6.95c-0.02,1.21-0.12,1.99-0.29,2.34  c-0.17,0.35-0.57,0.58-1.19,0.69c-0.76,0.12-1.95,0.2-3.56,0.2c-2.92,0-4.8-0.06-5.66-0.2c-0.4-0.07-0.7-0.18-0.89-0.33  c-0.19-0.15-0.32-0.42-0.42-0.77c-0.15-0.58-0.22-1.84-0.22-3.83c0-1.33,0.05-2.29,0.14-2.88c0.09-0.58,0.23-0.95,0.44-1.15  c0.23-0.22,0.76-0.39,1.55-0.49c0.79-0.09,2.09-0.13,3.93-0.13c1.4,0,2.59,0.03,3.54,0.09c0.67,0.05,1.16,0.1,1.46,0.18  c0.3,0.07,0.51,0.19,0.66,0.33c0.22,0.23,0.35,0.91,0.38,2.01h2.26c-0.01-0.95-0.09-1.67-0.22-2.12c-0.14-0.46-0.36-0.82-0.66-1.11  c-0.61-0.64-1.35-1.03-2.26-1.15c-0.41-0.06-1.22-0.1-2.39-0.15C114.16,39.69,113.15,39.65,112.28,39.65z M242.66,25.34  c2.17,2.58,4.22,5.26,6.14,8.03h4.45v-8.03H242.66z M216.1,14.95v18.42h18.44C228.92,26.55,223.05,20.36,216.1,14.95z M230.12,12.65  c2.7,2.32,5.29,4.77,7.74,7.34h13.85v-7.34H230.12z M273.51,8.34h14.29c2.35,0.01,3.76,0.03,4.24,0.07  c0.51,0.03,0.95,0.12,1.31,0.29c0.5,0.24,0.84,0.64,1.04,1.17c0.21,0.54,0.31,1.36,0.31,2.46c0,1.11-0.08,1.94-0.26,2.5  c-0.18,0.54-0.49,0.94-0.93,1.22c-0.34,0.21-0.75,0.35-1.24,0.4c-0.47,0.03-1.95,0.06-4.44,0.11h-14.31V8.34z M96.11,7.76h2.04  l6.44,12.65H89.7L96.11,7.76z M263.34,0v33.37h10.17v-8.49h14.33c2.11,0,3.49,0.06,4.13,0.17c0.67,0.1,1.18,0.34,1.55,0.73  c0.38,0.43,0.64,1.04,0.77,1.83c0.15,0.79,0.22,2.1,0.22,3.96v1.79h10.02v-3.12c0-2.89-0.07-4.77-0.22-5.66  c-0.14-0.92-0.5-1.69-1.04-2.32c-0.93-1.06-2.44-1.67-4.57-1.84c1.8-0.28,3.15-0.79,4.04-1.52c0.83-0.68,1.39-1.58,1.68-2.72  c0.31-1.14,0.47-2.93,0.47-5.35c0-2.89-0.23-5.01-0.71-6.35c-0.47-1.35-1.34-2.4-2.61-3.16c-1.06-0.65-2.16-1.03-3.3-1.13  c-1.14-0.12-4.6-0.19-10.37-0.2H263.34z M216.1,0v2.34c3.47,2.16,6.81,4.5,10.02,7.01v-1.5h26.93V0H216.1z M166.48,0v8.52h14.86  v24.85h10.68V8.52h14.73c-5.5-3.36-11.32-6.22-17.43-8.52H166.48z M130.92,0v33.37h34.41v-8.51H141.6V0H130.92z M89.3,0L71.61,33.37  h11.61l2.86-5.66h22.07l2.88,5.66h11.52L105.09,0H89.3z M0,0l12.56,33.37h15.75l6.61-24.48l6.7,24.48h15.7L70.3,0H59.51l-9,24.97  h-1.91L41,0H28.75l-7.56,24.97h-1.88L10.35,0H0z"
   id="path2"
   style="fill:#242856;fill-opacity:1;stroke:#242856;stroke-opacity:1" />
</svg>
