<svg width="230" height="22" viewBox="0 0 230 22" fill="none" xmlns="http://www.w3.org/2000/svg">
  <g transform="translate(0 1)">
    <path d="M9.78374 0.0202637H0V9.96651H7.3383V19.9127H12.2292L22.013 9.96651L22.013 19.9127H26.9058L36.6895 9.96651H39.135V0.0202637H34.2441L24.4603 9.9665L24.4585 9.96651V0.0202637H19.5675L9.78376 9.9665L9.78374 0.0202637Z" fill="#6733FF"/>
  </g>
  <g transform="translate(48 0)">
    <path fill-rule="evenodd" clip-rule="evenodd" d="M116.864 10.9832C116.864 5.02776 120.992 0.633179 126.962 0.633179C132.988 0.633179 137.088 5.02776 137.088 10.9832C137.088 16.9385 132.988 21.3331 126.962 21.3331C120.994 21.3331 116.864 16.9385 116.864 10.9832ZM134.047 10.9832C134.047 6.41847 131.175 3.38283 126.962 3.38283C122.777 3.38283 119.905 6.4166 119.905 10.9832C119.905 15.5497 122.777 18.5835 126.962 18.5835C131.175 18.5835 134.047 15.5497 134.047 10.9832ZM4.04462 1.05933H0.920654L6.47907 20.9088H9.88251L14.9426 5.45391H14.9978L19.9237 20.9088H23.3547L29.0474 1.05933H25.9234L21.2898 16.6563H21.2347L16.4191 1.05933H13.5471L8.62667 16.6563H8.57152L4.04462 1.05933ZM56.8593 17.1086H67.7077L69.3258 20.9088H72.5619L63.7747 1.05933H60.7629L51.9776 20.9088H55.2413L56.8593 17.1086ZM62.2982 4.48938L66.5659 14.4431H58.003L62.2431 4.48938H62.2982ZM75.7264 1.05933H85.7951C89.9506 1.05933 92.6848 3.44074 92.6848 7.29698C92.6848 11.1532 89.98 13.4785 85.7951 13.4785H78.7382V20.9088H75.7264V1.05933ZM85.6572 10.7289C88.3068 10.7289 89.673 9.59427 89.673 7.26894C89.673 4.91557 88.362 3.80898 85.6572 3.80898H78.74V10.7289H85.6572ZM106.826 1.05933H96.675V20.9088H106.242C110.872 20.9088 113.271 18.8657 113.271 14.9534C113.271 12.714 112.127 10.9831 110.37 10.2747V10.2186C111.708 9.53819 112.545 8.0914 112.545 6.24833C112.545 3.15848 110.23 1.05933 106.826 1.05933ZM109.531 6.50442C109.531 8.34749 108.445 9.31202 106.212 9.31202H99.685V3.81085H106.212C108.388 3.81085 109.531 4.74733 109.531 6.50442ZM110.256 14.9552C110.256 17.1666 109.002 18.1591 106.1 18.1591H99.685V11.8355H106.155C109.027 11.8355 110.256 12.8 110.256 14.9552ZM150.671 0.633179C144.702 0.633179 140.572 5.02776 140.572 10.9832C140.572 16.9385 144.702 21.3331 150.671 21.3331C156.696 21.3331 160.796 16.9385 160.796 10.9832C160.796 5.02776 156.696 0.633179 150.671 0.633179ZM150.671 3.38283C154.883 3.38283 157.755 6.41847 157.755 10.9832C157.755 15.5497 154.855 18.5835 150.671 18.5835C146.486 18.5835 143.614 15.5478 143.614 10.9832C143.614 6.4166 146.486 3.38283 150.671 3.38283ZM165.042 1.05933H168.053V11.0691H168.109L177.453 1.05933H181.665L173.41 9.65222L182 20.9106H178.262L171.372 11.7233H171.317L168.053 15.2394V20.9106H165.042V1.06119V1.05933ZM49.5306 20.9088L44.4429 12.9496V12.9215C47.2598 12.314 49.0949 10.3999 49.0949 7.09884C49.0949 3.35662 46.5574 1.05933 42.345 1.05933H32.6109V20.9088H35.6227V13.1383H41.2178L46.072 20.9088H49.5306ZM46.0812 7.06893C46.0812 9.2522 44.7426 10.3868 42.1206 10.3868H35.6208V3.80711H42.0636C44.7978 3.80711 46.0812 4.88566 46.0812 7.06893Z" fill="black"/>
  </g>
</svg>
