<?xml version="1.0" standalone="no"?>
<!DOCTYPE svg PUBLIC "-//W3C//DTD SVG 20010904//EN"
 "http://www.w3.org/TR/2001/REC-SVG-20010904/DTD/svg10.dtd">
<svg version="1.0" xmlns="http://www.w3.org/2000/svg"
 width="700.000000pt" height="700.000000pt" viewBox="0 0 700.000000 700.000000"
 preserveAspectRatio="xMidYMid meet">
<metadata>
Created by potrace 1.14, written by Peter Selinger 2001-2017
</metadata>
<g transform="translate(0.000000,700.000000) scale(0.100000,-0.100000)"
fill="#000000" stroke="none">
<path d="M961 4712 c-272 -372 -496 -682 -498 -687 -3 -11 2148 -2438 2164
-2441 4 -2 100 103 213 231 113 128 208 234 212 234 4 1 101 -104 214 -231
114 -128 210 -234 213 -236 4 -1 101 103 215 233 115 129 211 235 215 235 3 0
103 -105 221 -234 118 -129 218 -235 222 -235 12 -2 2188 2433 2185 2444 -2 5
-226 315 -498 687 l-494 677 -2045 0 -2045 0 -494 -677z m1082 296 c-6 -7
-173 -232 -372 -501 l-362 -487 751 -852 752 -851 -93 -93 c-51 -52 -96 -90
-100 -86 -52 59 -1633 1809 -1661 1838 l-40 42 363 501 363 501 204 0 c162 0
202 -3 195 -12z m857 7 c0 -2 -157 -227 -350 -500 l-350 -495 730 -830 c402
-456 730 -833 730 -837 0 -5 -42 -50 -92 -100 l-93 -91 -835 921 c-459 507
-835 929 -835 939 0 9 155 237 345 507 l345 490 203 1 c111 0 202 -2 202 -5z
m2781 -485 c197 -267 359 -487 359 -490 0 -10 -1678 -1882 -1686 -1881 -19 1
-1684 1855 -1679 1869 4 12 455 655 637 910 l59 82 976 -2 976 -3 358 -485z"/>
</g>
</svg>
